ffmpeg started on 2021-01-30 at 00:59:02
Report written to "E:/GitHub/91pron_python/m3u8DL-CLI/Logs/2021-01-30_00-58-30_ffreport.log"
Command line:
"E:\\GitHub\\91pron_python\\m3u8DL-CLI\\ffmpeg.exe" -loglevel warning -i "concat:00.ts|01.ts|02.ts|03.ts|04.ts|05.ts|06.ts|07.ts|08.ts|09.ts|10.ts|11.ts|12.ts|13.ts|14.ts|15.ts|16.ts|17.ts|18.ts|19.ts|20.ts|21.ts|22.ts|23.ts|24.ts|25.ts|26.ts|27.ts|28.ts|29.ts|30.ts|31.ts|32.ts|33.ts|34.ts|35.ts|" -map "0:v?" -map "0:a?" -map "0:s?" -metadata "date=2021-01-30T00:59:02.7215644+08:00" -metadata "encoding_tool=" -metadata "title=" -metadata "copyright=" -metadata "comment=" -metadata:s:a:0 "handler_name=" -metadata:s:a:0 "handler=" -c copy -y -bsf:a aac_adtstoasc "E:\\GitHub\\91pron_python\\m3u8DL-CLI\\Downloads\\jR.mp4"
ffmpeg version N-94813-g85386c36e3-ffmpeg-for-N_m3u8DL-CLI Copyright (c) 2000-2019 the FFmpeg developers
  built with gcc 8.2.0 (GCC)
  libavutil      56. 35.100 / 56. 35.100
  libavcodec     58. 56.101 / 58. 56.101
  libavformat    58. 32.104 / 58. 32.104
  libavfilter     7. 58.102 /  7. 58.102
  libavresample   4.  0.  0 /  4.  0.  0
  libswresample   3.  6.100 /  3.  6.100
Input #0, mpegts, from 'concat:00.ts|01.ts|02.ts|03.ts|04.ts|05.ts|06.ts|07.ts|08.ts|09.ts|10.ts|11.ts|12.ts|13.ts|14.ts|15.ts|16.ts|17.ts|18.ts|19.ts|20.ts|21.ts|22.ts|23.ts|24.ts|25.ts|26.ts|27.ts|28.ts|29.ts|30.ts|31.ts|32.ts|33.ts|34.ts|35.ts|':
  Duration: 00:05:53.71, start: 1.410111, bitrate: 692 kb/s
  Program 1 
    Metadata:
      service_name    : Service01
      service_provider: FFmpeg
    Stream #0:0[0x100]: Video: h264 ([27][0][0][0] / 0x001B), yuv420p(progressive), 202x360, 60 fps, 60 tbr, 90k tbn, 120 tbc
    Stream #0:1[0x101](und): Audio: aac ([15][0][0][0] / 0x000F), 44100 Hz, stereo, fltp, 130 kb/s
Output #0, mp4, to 'E:\GitHub\91pron_python\m3u8DL-CLI\Downloads\jR.mp4':
  Metadata:
    date            : 2021-01-30T00:59:02.7215644+08:00
    encoder         : Lavf58.32.104
    Stream #0:0: Video: h264 (avc1 / 0x31637661), yuv420p(progressive), 202x360, q=2-31, 60 fps, 60 tbr, 90k tbn, 90k tbc
    Stream #0:1(und): Audio: aac (mp4a / 0x6134706D), 44100 Hz, stereo, fltp, 130 kb/s
Stream mapping:
  Stream #0:0 -> #0:0 (copy)
  Stream #0:1 -> #0:1 (copy)
Press [q] to stop, [?] for help
frame=21221 fps=0.0 q=-1.0 Lsize=   26895kB time=00:05:53.70 bitrate= 622.9kbits/s speed=1.33e+03x    
video:20928kB audio:5550kB subtitle:0kB other streams:0kB global headers:0kB muxing overhead: 1.577891%
